<svg width="40" height="40" viewBox="0 0 40 40" fill="none" xmlns="http://www.w3.org/2000/svg">
<circle opacity="0.5" cx="20" cy="20" r="19.5" stroke="black"/>
<mask id="path-2-outside-1_7_68" maskUnits="userSpaceOnUse" x="17" y="15" width="7" height="11" fill="black">
<rect fill="white" x="17" y="15" width="7" height="11"/>
<path d="M22.6484 20.5C22.6484 20.4375 22.6172 20.3672 22.5703 20.3203L18.9297 16.6797C18.8828 16.6328 18.8125 16.6016 18.75 16.6016C18.6875 16.6016 18.6172 16.6328 18.5703 16.6797L18.1797 17.0703C18.1328 17.1172 18.1016 17.1875 18.1016 17.25C18.1016 17.3125 18.1328 17.3828 18.1797 17.4297L21.25 20.5L18.1797 23.5703C18.1328 23.6172 18.1016 23.6875 18.1016 23.75C18.1016 23.8203 18.1328 23.8828 18.1797 23.9297L18.5703 24.3203C18.6172 24.3672 18.6875 24.3984 18.75 24.3984C18.8125 24.3984 18.8828 24.3672 18.9297 24.3203L22.5703 20.6797C22.6172 20.6328 22.6484 20.5625 22.6484 20.5Z"/>
</mask>
<path d="M22.5703 20.3203L23.2774 19.6132L23.2774 19.6132L22.5703 20.3203ZM18.9297 16.6797L19.6368 15.9726L19.6368 15.9726L18.9297 16.6797ZM18.5703 16.6797L17.8632 15.9726L17.8632 15.9726L18.5703 16.6797ZM18.1797 17.0703L18.8868 17.7774L18.8868 17.7774L18.1797 17.0703ZM18.1797 17.4297L17.4726 18.1368L17.4726 18.1368L18.1797 17.4297ZM21.25 20.5L21.9571 21.2071L22.6642 20.5L21.9571 19.7929L21.25 20.5ZM18.1797 23.5703L17.4726 22.8632L17.4726 22.8632L18.1797 23.5703ZM18.1797 23.9297L18.8868 23.2226L18.8868 23.2226L18.1797 23.9297ZM18.5703 24.3203L17.8632 25.0274L17.8632 25.0274L18.5703 24.3203ZM18.9297 24.3203L18.2226 23.6132L18.2226 23.6132L18.9297 24.3203ZM22.5703 20.6797L23.2774 21.3868L23.2774 21.3868L22.5703 20.6797ZM23.6484 20.5C23.6484 20.1445 23.4912 19.827 23.2774 19.6132L21.8632 21.0274C21.7919 20.9562 21.7433 20.8793 21.7108 20.8051C21.679 20.7324 21.6484 20.6293 21.6484 20.5H23.6484ZM23.2774 19.6132L19.6368 15.9726L18.2226 17.3868L21.8632 21.0274L23.2774 19.6132ZM19.6368 15.9726C19.423 15.7588 19.1055 15.6016 18.75 15.6016V17.6016C18.6207 17.6016 18.5176 17.571 18.4449 17.5392C18.3707 17.5067 18.2938 17.4581 18.2226 17.3868L19.6368 15.9726ZM18.75 15.6016C18.3945 15.6016 18.077 15.7588 17.8632 15.9726L19.2774 17.3868C19.2062 17.4581 19.1293 17.5067 19.0551 17.5392C18.9824 17.571 18.8793 17.6016 18.75 17.6016V15.6016ZM17.8632 15.9726L17.4726 16.3632L18.8868 17.7774L19.2774 17.3868L17.8632 15.9726ZM17.4726 16.3632C17.2588 16.577 17.1016 16.8945 17.1016 17.25H19.1016C19.1016 17.3793 19.071 17.4824 19.0392 17.5551C19.0067 17.6293 18.9581 17.7062 18.8868 17.7774L17.4726 16.3632ZM17.1016 17.25C17.1016 17.6055 17.2588 17.923 17.4726 18.1368L18.8868 16.7226C18.9581 16.7938 19.0067 16.8707 19.0392 16.9449C19.071 17.0176 19.1016 17.1207 19.1016 17.25H17.1016ZM17.4726 18.1368L20.5429 21.2071L21.9571 19.7929L18.8868 16.7226L17.4726 18.1368ZM20.5429 19.7929L17.4726 22.8632L18.8868 24.2774L21.9571 21.2071L20.5429 19.7929ZM17.4726 22.8632C17.2588 23.077 17.1016 23.3945 17.1016 23.75H19.1016C19.1016 23.8793 19.071 23.9824 19.0392 24.0551C19.0067 24.1293 18.9581 24.2062 18.8868 24.2774L17.4726 22.8632ZM17.1016 23.75C17.1016 24.1292 17.2715 24.4357 17.4726 24.6368L18.8868 23.2226C18.9941 23.3299 19.1016 23.5114 19.1016 23.75H17.1016ZM17.4726 24.6368L17.8632 25.0274L19.2774 23.6132L18.8868 23.2226L17.4726 24.6368ZM17.8632 25.0274C18.077 25.2412 18.3945 25.3984 18.75 25.3984V23.3984C18.8793 23.3984 18.9824 23.429 19.0551 23.4608C19.1293 23.4933 19.2062 23.5419 19.2774 23.6132L17.8632 25.0274ZM18.75 25.3984C19.1055 25.3984 19.423 25.2412 19.6368 25.0274L18.2226 23.6132C18.2938 23.5419 18.3707 23.4933 18.4449 23.4608C18.5176 23.429 18.6207 23.3984 18.75 23.3984V25.3984ZM19.6368 25.0274L23.2774 21.3868L21.8632 19.9726L18.2226 23.6132L19.6368 25.0274ZM23.2774 21.3868C23.4912 21.173 23.6484 20.8555 23.6484 20.5H21.6484C21.6484 20.3707 21.679 20.2676 21.7108 20.1949C21.7433 20.1207 21.7919 20.0438 21.8632 19.9726L23.2774 21.3868Z" fill="black" mask="url(#path-2-outside-1_7_68)"/>
</svg>
