<svg width="27" height="28" viewBox="0 0 27 28" fill="none" xmlns="http://www.w3.org/2000/svg">
<path d="M27 26.0879L19.458 18.5459C21.2704 16.3701 22.1742 13.5793 21.9813 10.7541C21.7885 7.92889 20.5138 5.28681 18.4226 3.37746C16.3314 1.46812 13.5845 0.438516 10.7535 0.502842C7.92244 0.567169 5.22519 1.72047 3.22283 3.72283C1.22047 5.72519 0.0671688 8.42244 0.00284241 11.2535C-0.061484 14.0845 0.968119 16.8314 2.87746 18.9226C4.78681 21.0138 7.42889 22.2885 10.2541 22.4813C13.0793 22.6742 15.8701 21.7704 18.0459 19.958L25.5879 27.5L27 26.0879ZM2.03307 11.5212C2.03307 9.74349 2.56021 8.00573 3.54783 6.52764C4.53546 5.04956 5.93921 3.89753 7.58157 3.21725C9.22393 2.53696 11.0311 2.35896 12.7747 2.70577C14.5182 3.05258 16.1197 3.90861 17.3767 5.16562C18.6337 6.42263 19.4897 8.02415 19.8366 9.76767C20.1834 11.5112 20.0054 13.3184 19.3251 14.9608C18.6448 16.6031 17.4928 18.0069 16.0147 18.9945C14.5366 19.9821 12.7988 20.5093 11.0212 20.5093C8.63818 20.5066 6.35356 19.5588 4.66854 17.8738C2.98352 16.1888 2.03571 13.9041 2.03307 11.5212Z" fill="black"/>
</svg>
