<svg xmlns="http://www.w3.org/2000/svg">
    <symbol fill="none" viewBox="0 0 15 31" id="facebook">
        <path
            d="M3.82915 30.5V16.4231H0V11.3548H3.82915V7.02575C3.82915 3.62396 6.09105 0.5 11.3029 0.5C13.4131 0.5 14.9736 0.69665 14.9736 0.69665L14.8506 5.42963C14.8506 5.42963 13.2592 5.41457 11.5227 5.41457C9.64319 5.41457 9.34207 6.25652 9.34207 7.65395V11.3548H15L14.7538 16.4231H9.34207V30.5H3.82915Z"
            fill="var(--fill)"></path>
    </symbol>
    <symbol fill="none" viewBox="0 0 30 31" id="instagram">
        <path
            d="M15 8.45918C13.6075 8.45918 12.2462 8.87212 11.0883 9.64577C9.93048 10.4194 9.02804 11.5191 8.49513 12.8056C7.96223 14.0921 7.8228 15.5078 8.09447 16.8736C8.36614 18.2394 9.03672 19.4939 10.0214 20.4786C11.0061 21.4633 12.2606 22.1339 13.6264 22.4055C14.9922 22.6772 16.4079 22.5378 17.6944 22.0049C18.9809 21.472 20.0806 20.5695 20.8542 19.4117C21.6279 18.2538 22.0408 16.8925 22.0408 15.5C22.0408 13.6327 21.299 11.8418 19.9786 10.5214C18.6582 9.20098 16.8673 8.45918 15 8.45918ZM15 20.7041C13.9707 20.7041 12.9646 20.3989 12.1088 19.827C11.253 19.2552 10.5859 18.4424 10.1921 17.4915C9.79817 16.5406 9.69511 15.4942 9.89591 14.4847C10.0967 13.4752 10.5924 12.548 11.3202 11.8202C12.048 11.0924 12.9752 10.5967 13.9847 10.3959C14.9942 10.1951 16.0406 10.2982 16.9915 10.6921C17.9424 11.0859 18.7552 11.753 19.327 12.6088C19.8989 13.4646 20.2041 14.4707 20.2041 15.5C20.2 16.879 19.6505 18.2003 18.6754 19.1754C17.7003 20.1505 16.379 20.7 15 20.7041ZM21.7347 0.5H8.26531C6.07321 0.5 3.9709 1.37081 2.42085 2.92085C0.870807 4.4709 0 6.57321 0 8.76531V22.2347C0 24.4268 0.870807 26.5291 2.42085 28.0791C3.9709 29.6292 6.07321 30.5 8.26531 30.5H21.7347C23.9268 30.5 26.0291 29.6292 27.5791 28.0791C29.1292 26.5291 30 24.4268 30 22.2347V8.76531C30 6.57321 29.1292 4.4709 27.5791 2.92085C26.0291 1.37081 23.9268 0.5 21.7347 0.5ZM28.1633 22.2347C28.1633 23.9397 27.486 25.5748 26.2804 26.7804C25.0748 27.986 23.4397 28.6633 21.7347 28.6633H8.26531C6.56034 28.6633 4.92521 27.986 3.71962 26.7804C2.51403 25.5748 1.83673 23.9397 1.83673 22.2347V8.76531C1.83673 7.06034 2.51403 5.42521 3.71962 4.21962C4.92521 3.01403 6.56034 2.33673 8.26531 2.33673H21.7347C23.4397 2.33673 25.0748 3.01403 26.2804 4.21962C27.486 5.42521 28.1633 7.06034 28.1633 8.76531V22.2347ZM24.4898 7.54082C24.4898 7.84354 24.4 8.13947 24.2318 8.39118C24.0637 8.64289 23.8246 8.83907 23.5449 8.95492C23.2652 9.07077 22.9575 9.10108 22.6606 9.04202C22.3637 8.98296 22.0909 8.83718 21.8769 8.62312C21.6628 8.40906 21.517 8.13633 21.458 7.83942C21.3989 7.54251 21.4292 7.23476 21.5451 6.95508C21.6609 6.67539 21.8571 6.43634 22.1088 6.26816C22.3605 6.09997 22.6565 6.0102 22.9592 6.0102C23.3651 6.0102 23.7544 6.17146 24.0415 6.45851C24.3285 6.74556 24.4898 7.13487 24.4898 7.54082Z"
            fill="var(--fill)"></path>
    </symbol>
    <symbol fill="none" viewBox="0 0 182 34" id="logo-color">
        <path
            d="M1.17672 26.2565C0.392241 24.6545 0 22.7705 0 20.6047C0 18.4389 0.375898 16.5253 1.12769 14.8639C1.91218 13.1728 2.9745 11.719 4.31466 10.5026C7.15841 7.9808 10.7213 6.7199 15.0032 6.7199C19.4813 6.7199 23.1749 7.65445 26.0841 9.52356C29.3527 11.6597 30.9871 14.7155 30.9871 18.6911C30.9871 23.6161 29.7286 27.2504 27.2117 29.5942C24.7276 31.938 20.8378 33.1099 15.5426 33.1099C8.18804 33.1099 3.39943 30.8255 1.17672 26.2565ZM4.02047 19.7147C4.02047 26.7164 7.9102 30.2173 15.6897 30.2173C19.514 30.2173 22.6193 29.1789 25.0054 27.1021C27.3915 25.055 28.5846 22.37 28.5846 19.0471C28.5846 15.9319 27.1627 13.5585 24.319 11.9267C21.9001 10.5026 18.8439 9.79058 15.1503 9.79058C12.2085 9.79058 9.60991 10.7548 7.35453 12.6832C5.13182 14.6117 4.02047 16.9555 4.02047 19.7147Z"
            fill="#C62100"></path>
        <path
            d="M53.0016 23.9869C53.0016 20.4564 52.7892 17.8604 52.3642 16.199C52.6257 15.7539 52.2335 15.5314 51.1875 15.5314C50.0761 15.5314 48.6379 15.7836 46.8728 16.288C45.1078 16.7923 43.6695 17.2967 42.5582 17.801C39.9106 18.9581 38.4397 20.0855 38.1455 21.1832V33.288H34.8605C34.4355 32.2792 34.2231 29.4459 34.2231 24.788C34.2231 20.6344 34.3048 17.5785 34.4682 15.6204C34.6643 13.6623 34.8114 12.5497 34.9095 12.2827C35.7593 11.7784 36.4458 11.5262 36.9688 11.5262C37.7859 11.5262 38.1945 12.4014 38.1945 14.1518C38.1945 14.8342 38.1455 15.5017 38.0474 16.1545C37.982 16.7775 37.9494 17.2077 37.9494 17.445C43.2446 13.9145 47.3468 12.1492 50.2559 12.1492C53.5573 12.1492 55.4368 14.5672 55.8944 19.4031C56.0905 21.0942 56.1886 23.438 56.1886 26.4346L56.1395 29.9503C56.1395 31.2557 56.1722 32.5166 56.2376 33.733C55.9107 33.911 55.6492 34 55.4531 34C55.3551 33.9703 55.1426 33.9258 54.8157 33.8665C54.4889 33.8072 54.0639 33.7627 53.5409 33.733C53.2141 32.5462 53.0343 31.3447 53.0016 30.1283C52.9689 28.8822 52.9526 27.74 52.9526 26.7016L53.0016 23.9869Z"
            fill="#C62100"></path>
        <path
            d="M95.0695 26.3456C96.7038 21.5393 98.5997 12.7574 100.757 0C102.816 0 103.895 0.578534 103.993 1.7356C104.026 2.09162 104.042 2.3438 104.042 2.49215C104.075 2.64049 104.026 3.15969 103.895 4.04974C103.764 4.91012 103.568 6.12653 103.307 7.69895C103.078 9.27138 102.784 11.096 102.424 13.1728C102.064 15.2496 101.656 17.4154 101.198 19.6702C100.087 24.9808 98.9429 29.4607 97.7662 33.1099C96.5894 33.8517 95.6742 33.9703 95.0205 33.466C94.7263 33.199 94.4648 32.8429 94.236 32.3979C94.0072 31.9232 93.7457 31.3892 93.4515 30.7958C93.0266 30.2914 92.2421 28.9564 91.0981 26.7906C89.954 24.6248 89.0224 22.904 88.3033 21.6283C87.6169 20.3525 86.9468 19.1658 86.2931 18.0681C84.7895 15.6056 83.5311 14.1667 82.5178 13.7513C81.3411 15.4127 79.2491 19.9668 76.2419 27.4136C75.7189 28.719 75.245 29.9354 74.82 31.0628C74.3951 32.1606 74.0356 33.0506 73.7414 33.733L70.7015 33.5995L58.444 7.87696C58.3786 7.72862 58.3459 7.58028 58.3459 7.43194C58.3459 7.2836 58.3949 7.13525 58.493 6.98691C58.6237 6.83857 58.8362 6.70506 59.1304 6.58639C59.6861 6.40838 60.2417 6.31937 60.7974 6.31937C61.3531 6.31937 61.7453 6.42321 61.9741 6.63089C62.2356 6.8089 62.4318 7.04625 62.5625 7.34293C62.7259 7.63962 62.8567 7.96597 62.9547 8.32199C63.0528 8.67801 63.2326 9.13787 63.4941 9.70157C63.7883 10.2653 64.1968 11.096 64.7198 12.1937C65.2755 13.2914 65.8639 14.4485 66.4849 15.6649C67.106 16.8813 67.727 18.0977 68.3481 19.3141C68.9691 20.5009 69.5575 21.5986 70.1131 22.6073C71.2899 24.8325 72.0253 26.0785 72.3195 26.3456C76.1112 17.8604 78.4483 12.8316 79.3308 11.2592C80.2134 9.65707 80.769 8.67801 80.9978 8.32199C81.3574 7.81763 81.6352 7.56544 81.8314 7.56544C83.2369 7.56544 85.6067 10.4136 88.9407 16.1099C89.856 17.623 90.7058 19.0768 91.4903 20.4712C93.4188 23.8534 94.6119 25.8115 95.0695 26.3456Z"
            fill="#C62100"></path>
        <path
            d="M125.468 26.3456C123.017 29.8464 119.748 32.0122 115.662 32.8429C114.714 33.0209 113.848 33.1099 113.064 33.1099C112.312 33.1099 111.674 33.1099 111.151 33.1099C110.661 33.0803 110.105 33.0061 109.484 32.8874C108.863 32.7688 108.291 32.5759 107.768 32.3089C106.559 31.6859 105.954 30.8106 105.954 29.6832C105.823 29.1492 105.758 28.5558 105.758 27.9031C105.758 27.2208 105.922 26.3307 106.248 25.233C106.575 24.1353 107.164 22.9485 108.013 21.6728C108.896 20.397 109.958 19.2251 111.2 18.1571C113.783 15.9023 116.577 14.4485 119.585 13.7958C120.467 13.6178 121.268 13.5288 121.987 13.5288C122.739 13.5288 123.409 13.5733 123.997 13.6623C125.893 13.6623 127.168 14.8342 127.822 17.178C128.247 18.6614 128.492 20.7382 128.557 23.4084C128.655 26.0489 128.737 28.096 128.802 29.5497C128.9 30.9738 129.113 32.2792 129.44 33.466H126.547C126.416 32.6649 126.318 31.9529 126.253 31.3298C126.187 30.7068 126.122 30.1283 126.057 29.5942C125.893 28.3482 125.697 27.2653 125.468 26.3456ZM125.272 19.4476C125.272 17.7269 124.341 16.8665 122.477 16.8665C122.249 16.8368 122.02 16.822 121.791 16.822C119.405 16.822 116.888 17.8604 114.24 19.9372C112.998 20.8866 111.936 21.9546 111.053 23.1414C109.746 24.8325 109.092 26.3456 109.092 27.6806C109.092 29.4311 110.203 30.4695 112.426 30.7958C115.368 30.7365 118.179 29.5201 120.859 27.1466C122.003 26.1082 122.951 24.9808 123.703 23.7644C124.749 22.1326 125.272 20.6937 125.272 19.4476Z"
            fill="#C62100"></path>
        <path
            d="M132.185 16.5105C132.12 16.3621 132.087 16.199 132.087 16.0209C132.087 15.8133 132.169 15.5462 132.332 15.2199C132.496 14.8935 132.725 14.6117 133.019 14.3743C133.346 14.137 133.689 14.0332 134.048 14.0628C134.441 14.0628 134.751 14.2705 134.98 14.6859L143.217 28.5707C143.479 28.2147 143.887 27.562 144.443 26.6126C145.031 25.6335 145.685 24.5358 146.404 23.3194C147.156 22.103 147.924 20.8421 148.709 19.5366C149.526 18.2016 150.277 16.9852 150.964 15.8874C152.533 13.3656 153.464 12.1047 153.759 12.1047C154.445 12.1047 154.935 12.3421 155.23 12.8168C155.556 13.2618 155.72 13.603 155.72 13.8403C155.72 14.0777 155.72 14.2408 155.72 14.3298C153.889 17.9494 152.19 21.2871 150.621 24.3429C149.084 27.3988 148.055 29.3866 147.532 30.3063C147.041 31.1963 146.6 31.9084 146.208 32.4424C145.522 33.3621 144.851 33.822 144.198 33.822C143.544 33.822 142.792 33.3621 141.942 32.4424C141.092 31.493 140.128 30.2321 139.05 28.6597C137.154 25.8115 134.866 21.7618 132.185 16.5105Z"
            fill="#C62100"></path>
        <path
            d="M167.781 30.6178C170.658 30.6178 174.989 29.4311 180.774 27.0576C181.134 27.0576 181.428 27.1763 181.657 27.4136C181.886 27.6213 182 27.8735 182 28.1702C180.693 30.1876 178.192 31.76 174.498 32.8874C170.805 34.0148 167.356 34.2077 164.153 33.466C160.525 32.6056 158.318 30.7513 157.534 27.9031C157.469 27.3394 157.436 26.5829 157.436 25.6335C157.436 24.6841 157.697 23.438 158.22 21.8953C158.776 20.3229 159.708 18.8394 161.015 17.445C162.323 16.0506 163.859 14.9529 165.624 14.1518C167.389 13.3508 169.268 12.9503 171.262 12.9503C173.158 12.9503 175.283 13.5436 177.636 14.7304C178.748 15.2941 179.63 15.9319 180.284 16.644C180.938 17.356 181.265 18.0829 181.265 18.8246C181.265 19.0323 181.248 19.24 181.216 19.4476C181.15 21.2574 180.186 22.3997 178.323 22.8743C177.506 23.082 176.558 23.1859 175.479 23.1859L168.419 22.9188C166.065 22.9188 164.267 23.3787 163.025 24.2984C162.306 24.8028 161.8 25.5593 161.505 26.5681C162.323 29.2679 164.415 30.6178 167.781 30.6178ZM176.509 16.8665C175.79 16.3918 175.038 16.0506 174.253 15.8429C173.469 15.6353 172.815 15.5314 172.292 15.5314C171.769 15.5314 170.919 15.6946 169.742 16.0209C168.566 16.3176 167.52 16.6588 166.605 17.0445C164.349 17.9939 163.221 18.9878 163.221 20.0262C165.836 20.2339 167.798 20.3377 169.105 20.3377C172.733 20.3377 175.185 20.0558 176.46 19.4921C177.244 19.1955 177.636 18.8246 177.636 18.3796C177.636 17.8456 177.26 17.3412 176.509 16.8665Z"
            fill="#C62100"></path>
    </symbol>
    <symbol fill="none" viewBox="0 0 149 31" id="logo-white">
        <path
            d="M0.963362 23.9398C0.321121 22.4791 0 20.7613 0 18.7866C0 16.812 0.307741 15.0672 0.923222 13.5524C1.56546 12.0105 2.43517 10.685 3.53233 9.57592C5.86045 7.27661 8.7773 6.12696 12.2829 6.12696C15.949 6.12696 18.9729 6.97906 21.3545 8.68325C24.0305 10.6309 25.3685 13.4171 25.3685 17.0419C25.3685 21.5323 24.3383 24.846 22.2777 26.983C20.244 29.12 17.0595 30.1885 12.7244 30.1885C6.70339 30.1885 2.78305 28.1056 0.963362 23.9398ZM3.29149 17.9751C3.29149 24.3591 6.47593 27.551 12.8448 27.551C15.9758 27.551 18.518 26.6043 20.4714 24.7107C22.4249 22.8442 23.4017 20.3962 23.4017 17.3665C23.4017 14.5262 22.2376 12.3621 19.9095 10.8743C17.9292 9.57592 15.4272 8.9267 12.4033 8.9267C9.99488 8.9267 7.86746 9.80585 6.02101 11.5641C4.20133 13.3224 3.29149 15.4594 3.29149 17.9751Z"
            fill="#F8F1EA"></path>
        <path
            d="M43.3914 21.8704C43.3914 18.6514 43.2175 16.2845 42.8696 14.7696C43.0837 14.3639 42.7626 14.161 41.9062 14.161C40.9964 14.161 39.819 14.3909 38.3739 14.8508C36.9289 15.3106 35.7514 15.7705 34.8416 16.2304C32.674 17.2853 31.4698 18.3133 31.229 19.3141V30.3508H28.5396C28.1917 29.4311 28.0178 26.8477 28.0178 22.6008C28.0178 18.8137 28.0847 16.0275 28.2185 14.2421C28.379 12.4568 28.4995 11.4424 28.5797 11.199C29.2755 10.7391 29.8375 10.5092 30.2656 10.5092C30.9346 10.5092 31.2691 11.3072 31.2691 12.9031C31.2691 13.5253 31.229 14.1339 31.1487 14.7291C31.0952 15.2971 31.0684 15.6894 31.0684 15.9058C35.4036 12.6867 38.7619 11.0772 41.1436 11.0772C43.8464 11.0772 45.3851 13.2818 45.7597 17.6911C45.9203 19.233 46.0005 21.37 46.0005 24.1021L45.9604 27.3076C45.9604 28.4978 45.9872 29.6475 46.0407 30.7565C45.7731 30.9188 45.559 31 45.3984 31C45.3182 30.9729 45.1442 30.9324 44.8766 30.8783C44.609 30.8242 44.2611 30.7836 43.833 30.7565C43.5654 29.6745 43.4182 28.579 43.3914 27.4699C43.3647 26.3338 43.3513 25.2923 43.3513 24.3455L43.3914 21.8704Z"
            fill="#F8F1EA"></path>
        <path
            d="M77.8316 24.0209C79.1696 19.6387 80.7217 11.6318 82.4879 0C84.1738 0 85.0568 0.527487 85.1371 1.58246C85.1639 1.90707 85.1773 2.137 85.1773 2.27225C85.204 2.4075 85.1639 2.88089 85.0568 3.69241C84.9498 4.47688 84.7892 5.58595 84.5752 7.01963C84.3878 8.45332 84.147 10.1169 83.8526 12.0105C83.5583 13.904 83.2238 15.8787 82.8491 17.9346C81.9393 22.7766 81.0027 26.8613 80.0393 30.1885C79.076 30.8647 78.3267 30.9729 77.7915 30.5131C77.5506 30.2696 77.3366 29.945 77.1492 29.5393C76.9619 29.1065 76.7478 28.6195 76.507 28.0785C76.1591 27.6187 75.5169 26.4014 74.5803 24.4267C73.6437 22.452 72.881 20.8831 72.2923 19.7199C71.7303 18.5567 71.1817 17.4747 70.6466 16.4738C69.4156 14.2286 68.3853 12.9167 67.5558 12.538C66.5924 14.0528 64.8798 18.2051 62.4178 24.9948C61.9897 26.185 61.6017 27.2941 61.2538 28.322C60.9059 29.3229 60.6115 30.1344 60.3707 30.7565L57.882 30.6348L47.847 7.18194C47.7935 7.04668 47.7667 6.91143 47.7667 6.77618C47.7667 6.64092 47.8068 6.50567 47.8871 6.37042C47.9942 6.23517 48.1681 6.11344 48.4089 6.00524C48.8639 5.84293 49.3188 5.76178 49.7737 5.76178C50.2286 5.76178 50.5497 5.85646 50.7371 6.04581C50.9511 6.20812 51.1117 6.42452 51.2188 6.69503C51.3526 6.96553 51.4596 7.26309 51.5399 7.5877C51.6201 7.9123 51.7673 8.33159 51.9814 8.84555C52.2223 9.35951 52.5568 10.1169 52.9849 11.1178C53.4398 12.1187 53.9215 13.1736 54.43 14.2827C54.9384 15.3918 55.4468 16.5009 55.9553 17.6099C56.4637 18.692 56.9454 19.6928 57.4003 20.6126C58.3637 22.6414 58.9658 23.7775 59.2066 24.0209C62.3108 16.2845 64.2241 11.6994 64.9467 10.2657C65.6692 8.80497 66.1241 7.9123 66.3114 7.5877C66.6058 7.12784 66.8332 6.89791 66.9938 6.89791C68.1445 6.89791 70.0846 9.49476 72.8141 14.6885C73.5634 16.0681 74.2592 17.3935 74.9014 18.6649C76.4802 21.7487 77.457 23.534 77.8316 24.0209Z"
            fill="#F8F1EA"></path>
        <path
            d="M102.718 24.0209C100.711 27.2129 98.0355 29.1876 94.6905 29.945C93.9144 30.1073 93.2053 30.1885 92.563 30.1885C91.9476 30.1885 91.4257 30.1885 90.9976 30.1885C90.5962 30.1614 90.1413 30.0938 89.6328 29.9856C89.1244 29.8774 88.6561 29.7016 88.2279 29.4581C87.2378 28.8901 86.7427 28.0921 86.7427 27.0641C86.6357 26.5772 86.5822 26.0362 86.5822 25.4411C86.5822 24.8189 86.716 24.0074 86.9836 23.0065C87.2512 22.0057 87.7328 20.9236 88.4286 19.7605C89.1511 18.5973 90.0208 17.5288 91.0377 16.555C93.1518 14.4991 95.4397 13.1736 97.9017 12.5785C98.6242 12.4162 99.2798 12.3351 99.8685 12.3351C100.484 12.3351 101.033 12.3757 101.514 12.4568C103.066 12.4568 104.11 13.5253 104.645 15.6623C104.993 17.0148 105.194 18.9084 105.247 21.3429C105.328 23.7504 105.394 25.6169 105.448 26.9424C105.528 28.2408 105.702 29.4311 105.97 30.5131H103.602C103.495 29.7827 103.414 29.1335 103.361 28.5654C103.307 27.9974 103.254 27.4699 103.2 26.983C103.066 25.8469 102.906 24.8595 102.718 24.0209ZM102.558 17.7317C102.558 16.1627 101.795 15.3783 100.27 15.3783C100.083 15.3512 99.8953 15.3377 99.708 15.3377C97.7545 15.3377 95.694 16.2845 93.5264 18.178C92.5095 19.0436 91.6398 20.0175 90.9173 21.0995C89.8469 22.6414 89.3117 24.0209 89.3117 25.2382C89.3117 26.8342 90.2215 27.781 92.0412 28.0785C94.4496 28.0244 96.751 26.9154 98.9453 24.7513C99.8819 23.8045 100.658 22.7766 101.273 21.6675C102.13 20.1798 102.558 18.8678 102.558 17.7317Z"
            fill="#F8F1EA"></path>
        <path
            d="M108.218 15.0537C108.164 14.9184 108.137 14.7696 108.137 14.6073C108.137 14.418 108.204 14.1745 108.338 13.877C108.472 13.5794 108.659 13.3224 108.9 13.106C109.168 12.8896 109.449 12.7949 109.743 12.822C110.064 12.822 110.318 13.0113 110.506 13.3901L117.249 26.0497C117.463 25.7251 117.798 25.13 118.253 24.2644C118.734 23.3717 119.27 22.3709 119.858 21.2618C120.474 20.1527 121.103 19.0031 121.745 17.8128C122.414 16.5955 123.029 15.4865 123.591 14.4856C124.876 12.1863 125.638 11.0366 125.879 11.0366C126.441 11.0366 126.843 11.2531 127.084 11.6859C127.351 12.0916 127.485 12.4027 127.485 12.6191C127.485 12.8355 127.485 12.9843 127.485 13.0654C125.986 16.3656 124.595 19.4088 123.31 22.195C122.053 24.9812 121.21 26.7936 120.782 27.6322C120.38 28.4437 120.019 29.0929 119.698 29.5798C119.136 30.4184 118.587 30.8377 118.052 30.8377C117.517 30.8377 116.901 30.4184 116.206 29.5798C115.51 28.7142 114.72 27.5646 113.837 26.1309C112.285 23.534 110.412 19.8416 108.218 15.0537Z"
            fill="#F8F1EA"></path>
        <path
            d="M137.359 27.9162C139.714 27.9162 143.26 26.8342 147.996 24.6702C148.291 24.6702 148.532 24.7784 148.719 24.9948C148.906 25.1841 149 25.414 149 25.6846C147.93 27.524 145.882 28.9577 142.859 29.9856C139.835 31.0135 137.011 31.1894 134.389 30.5131C131.419 29.7286 129.612 28.038 128.97 25.4411C128.917 24.9271 128.89 24.2373 128.89 23.3717C128.89 22.5061 129.104 21.37 129.532 19.9634C129.987 18.5297 130.75 17.1771 131.82 15.9058C132.89 14.6344 134.148 13.6335 135.593 12.9031C137.038 12.1728 138.577 11.8076 140.209 11.8076C141.761 11.8076 143.501 12.3486 145.428 13.4306C146.337 13.9446 147.06 14.5262 147.595 15.1754C148.13 15.8246 148.398 16.4873 148.398 17.1636C148.398 17.353 148.385 17.5423 148.358 17.7317C148.304 19.3818 147.515 20.4232 145.989 20.856C145.32 21.0454 144.544 21.1401 143.661 21.1401L137.881 20.8966C135.954 20.8966 134.483 21.3159 133.466 22.1544C132.877 22.6143 132.462 23.3041 132.221 24.2238C132.89 26.6854 134.603 27.9162 137.359 27.9162ZM144.504 15.3783C143.916 14.9455 143.3 14.6344 142.658 14.445C142.016 14.2557 141.48 14.161 141.052 14.161C140.624 14.161 139.928 14.3098 138.965 14.6073C138.002 14.8778 137.145 15.1889 136.396 15.5406C134.55 16.4062 133.626 17.3124 133.626 18.2592C135.767 18.4485 137.373 18.5432 138.443 18.5432C141.414 18.5432 143.421 18.2862 144.464 17.7723C145.106 17.5017 145.428 17.1636 145.428 16.7579C145.428 16.2709 145.12 15.8111 144.504 15.3783Z"
            fill="#F8F1EA"></path>
    </symbol>
    <symbol fill="none" viewBox="0 0 23 31" id="pinterest">
        <path
            d="M12.2193 0.5C6.07321 0.5 0 4.61108 0 11.2648C0 15.4961 2.37197 17.9002 3.80953 17.9002C4.40277 17.9002 4.74395 16.2414 4.74395 15.773C4.74395 15.2143 3.3246 14.0238 3.3246 11.6975C3.3246 6.86521 6.99037 3.43882 11.7343 3.43882C15.8132 3.43882 18.832 5.76507 18.832 10.0387C18.832 13.2304 17.5564 19.2167 13.423 19.2167C11.9317 19.2167 10.6552 18.1349 10.6552 16.5847C10.6552 14.3123 12.2365 12.113 12.2365 9.76845C12.2365 5.79008 6.61182 6.51132 6.61182 11.3196C6.61182 12.3293 6.73736 13.4468 7.18684 14.3671C6.35976 17.9377 4.67111 23.2567 4.67111 26.935C4.67111 28.0707 4.83308 29.1891 4.94041 30.3248C5.14359 30.5537 5.042 30.5297 5.35347 30.4152C8.37235 26.2676 8.26501 25.4569 9.63069 20.0293C10.3677 21.4362 12.272 22.1931 13.7814 22.1931C20.1421 22.1931 23 15.9721 23 10.3647C23 4.39663 17.8602 0.501923 12.2183 0.501923L12.2193 0.5Z"
            fill="var(--fill)"></path>
    </symbol>
    <symbol fill="none" viewBox="0 0 29 30" id="profile-icon">
        <path
            d="M14.5 1.5C7.04395 1.5 1 7.54395 1 15C1 22.4561 7.04395 28.5 14.5 28.5C21.9561 28.5 28 22.4561 28 15C28 7.54395 21.9561 1.5 14.5 1.5Z"
            stroke="black" stroke-width="2" stroke-linecap="round" stroke-linejoin="round"></path>
        <path
            d="M4 23.5C4 23.5 7.02795 19.5812 14.4993 19.5812C21.9707 19.5812 25 23.5 25 23.5H4ZM14.4993 14.7618C15.5802 14.7618 16.6167 14.3266 17.381 13.5519C18.1453 12.7772 18.5746 11.7265 18.5746 10.6309C18.5746 9.53531 18.1453 8.4846 17.381 7.70991C16.6167 6.93522 15.5802 6.5 14.4993 6.5C13.4185 6.5 12.3819 6.93522 11.6177 7.70991C10.8534 8.4846 10.424 9.53531 10.424 10.6309C10.424 11.7265 10.8534 12.7772 11.6177 13.5519C12.3819 14.3266 13.4185 14.7618 14.4993 14.7618V14.7618Z"
            stroke="black" stroke-width="2" stroke-linecap="round" stroke-linejoin="round"></path>
    </symbol>
    <symbol fill="none" viewBox="0 0 27 28" id="search-icon">
        <path
            d="M27 26.0879L19.458 18.5459C21.2704 16.3701 22.1742 13.5793 21.9813 10.7541C21.7885 7.92889 20.5138 5.28681 18.4226 3.37746C16.3314 1.46812 13.5845 0.438516 10.7535 0.502842C7.92244 0.567169 5.22519 1.72047 3.22283 3.72283C1.22047 5.72519 0.0671688 8.42244 0.00284241 11.2535C-0.061484 14.0845 0.968119 16.8314 2.87746 18.9226C4.78681 21.0138 7.42889 22.2885 10.2541 22.4813C13.0793 22.6742 15.8701 21.7704 18.0459 19.958L25.5879 27.5L27 26.0879ZM2.03307 11.5212C2.03307 9.74349 2.56021 8.00573 3.54783 6.52764C4.53546 5.04956 5.93921 3.89753 7.58157 3.21725C9.22393 2.53696 11.0311 2.35896 12.7747 2.70577C14.5182 3.05258 16.1197 3.90861 17.3767 5.16562C18.6337 6.42263 19.4897 8.02415 19.8366 9.76767C20.1834 11.5112 20.0054 13.3184 19.3251 14.9608C18.6448 16.6031 17.4928 18.0069 16.0147 18.9945C14.5366 19.9821 12.7988 20.5093 11.0212 20.5093C8.63818 20.5066 6.35356 19.5588 4.66854 17.8738C2.98352 16.1888 2.03571 13.9041 2.03307 11.5212Z"
            fill="black"></path>
    </symbol>
    <symbol fill="none" viewBox="0 0 38 33" id="twitter">
        <path
            d="M37 1.51681C37 1.51681 33.6978 3.50971 31.8618 4.07482C30.8763 2.91704 29.5665 2.09645 28.1097 1.724C26.6528 1.35156 25.1192 1.44525 23.7161 1.99239C22.3131 2.53953 21.1084 3.51373 20.2649 4.78323C19.4214 6.05272 18.9799 7.55627 19 9.09051V10.7624C16.1243 10.8386 13.2748 10.187 10.7053 8.86555C8.13576 7.54414 5.92597 5.59396 4.27273 3.18871C4.27273 3.18871 -2.27273 18.2358 12.4545 24.9234C9.0845 27.2606 5.06989 28.4326 1 28.2672C15.7273 36.6267 33.7273 28.2672 33.7273 9.04035C33.7273 8.57556 33.6815 8.11078 33.5964 7.65268C35.2655 5.97075 37 1.51681 37 1.51681Z"
            stroke="var(--fill)" stroke-width="2" stroke-linecap="round" stroke-linejoin="round"></path>
    </symbol>
    <symbol fill="none" viewBox="0 0 42 33" id="youtube">
        <path
            d="M40.112 6.19136C39.8841 5.28269 39.4378 4.4542 38.8178 3.78882C38.1978 3.12343 37.4258 2.6445 36.579 2.39994C34.265 1.44055 11.8472 0.970516 5.34322 2.42677C4.49637 2.67142 3.72428 3.15052 3.10424 3.8161C2.48419 4.48169 2.03797 5.3104 1.81024 6.21926C0.765246 11.1375 0.686247 21.7702 1.83624 26.7989C2.06412 27.7076 2.51042 28.5361 3.13045 29.2015C3.75048 29.8668 4.52249 30.3458 5.36922 30.5903C9.95219 31.7225 31.7401 31.8813 36.605 30.5903C37.4518 30.3458 38.2238 29.8668 38.8438 29.2015C39.4638 28.5361 39.9101 27.7076 40.138 26.7989C41.252 21.4407 41.331 11.4669 40.112 6.19136V6.19136Z"
            stroke="var(--fill)" stroke-width="2" stroke-linecap="round" stroke-linejoin="round" />
        <path d="M27 17L17 10.5V23.5L27 17Z" stroke="var(--fill)" stroke-width="2" stroke-linecap="round"
            stroke-linejoin="round" />
    </symbol>
</svg>